<svg xmlns="http://www.w3.org/2000/svg">
	<symbol id="angle-down" viewBox="0 0 320 512">
		<path fill="currentColor" d="M143 352.3L7 216.3c-9.4-9.4-9.4-24.6 0-33.9l22.6-22.6c9.4-9.4 24.6-9.4 33.9 0l96.4 96.4 96.4-96.4c9.4-9.4 24.6-9.4 33.9 0l22.6 22.6c9.4 9.4 9.4 24.6 0 33.9l-136 136c-9.2 9.4-24.4 9.4-33.8 0z"></path>
	</symbol>
	<symbol id="angle-left" viewBox="0 0 256 512">
		<path fill="currentColor" d="M31.7 239l136-136c9.4-9.4 24.6-9.4 33.9 0l22.6 22.6c9.4 9.4 9.4 24.6 0 33.9L127.9 256l96.4 96.4c9.4 9.4 9.4 24.6 0 33.9L201.7 409c-9.4 9.4-24.6 9.4-33.9 0l-136-136c-9.5-9.4-9.5-24.6-.1-34z"></path>
	</symbol>
	<symbol id="angle-right" viewBox="0 0 256 512">
		<path fill="currentColor" d="M224.3 273l-136 136c-9.4 9.4-24.6 9.4-33.9 0l-22.6-22.6c-9.4-9.4-9.4-24.6 0-33.9l96.4-96.4-96.4-96.4c-9.4-9.4-9.4-24.6 0-33.9L54.3 103c9.4-9.4 24.6-9.4 33.9 0l136 136c9.5 9.4 9.5 24.6.1 34z"></path>
	</symbol>
	<symbol id="angle-up" viewBox="0 0 320 512">
		<path fill="currentColor" d="M177 159.7l136 136c9.4 9.4 9.4 24.6 0 33.9l-22.6 22.6c-9.4 9.4-24.6 9.4-33.9 0L160 255.9l-96.4 96.4c-9.4 9.4-24.6 9.4-33.9 0L7 329.7c-9.4-9.4-9.4-24.6 0-33.9l136-136c9.4-9.5 24.6-9.5 34-.1z"></path>
	</symbol>
	<symbol id="check" viewBox="0 0 512 512">
		<path fill="currentColor" d="M173.898 439.404l-166.4-166.4c-9.997-9.997-9.997-26.206 0-36.204l36.203-36.204c9.997-9.998 26.207-9.998 36.204 0L192 312.69 432.095 72.596c9.997-9.997 26.207-9.997 36.204 0l36.203 36.204c9.997 9.997 9.997 26.206 0 36.204l-294.4 294.401c-9.998 9.997-26.207 9.997-36.204-.001z"></path>
	</symbol>
	<symbol id="information" viewBox="0 0 192 512">
		<path fill="currentColor" d="M20 424.229h20V279.771H20c-11.046 0-20-8.954-20-20V212c0-11.046 8.954-20 20-20h112c11.046 0 20 8.954 20 20v212.229h20c11.046 0 20 8.954 20 20V492c0 11.046-8.954 20-20 20H20c-11.046 0-20-8.954-20-20v-47.771c0-11.046 8.954-20 20-20zM96 0C56.235 0 24 32.235 24 72s32.235 72 72 72 72-32.235 72-72S135.764 0 96 0z"></path>
	</symbol>
	<symbol id="minus" viewBox="0 0 448 512">
		<path fill="currentColor" d="M416 208H32c-17.67 0-32 14.33-32 32v32c0 17.67 14.33 32 32 32h384c17.67 0 32-14.33 32-32v-32c0-17.67-14.33-32-32-32z"></path>
	</symbol>
	<symbol id="pen" viewBox="0 0 512 512">
		<path fill="currentColor" d="M301.2 99.8l111 111c4.7 4.7 4.7 12.3 0 17L140.8 499.2 26.7 511.8C11.4 513.5-1.5 500.6.2 485.3l12.7-114.2L284.2 99.8c4.7-4.7 12.3-4.7 17 0zm196.7-25.6l-60.1-60.1c-18.7-18.7-49.1-18.7-67.9 0l-46.1 46.1c-4.7 4.7-4.7 12.3 0 17l111 111c4.7 4.7 12.3 4.7 17 0l46.1-46.1c18.8-18.8 18.8-49.2 0-67.9z"></path>>
	</symbol>
	<symbol id="plus" viewBox="0 0 448 512">
		<path fill="currentColor" d="M416 208H272V64c0-17.67-14.33-32-32-32h-32c-17.67 0-32 14.33-32 32v144H32c-17.67 0-32 14.33-32 32v32c0 17.67 14.33 32 32 32h144v144c0 17.67 14.33 32 32 32h32c17.67 0 32-14.33 32-32V304h144c17.67 0 32-14.33 32-32v-32c0-17.67-14.33-32-32-32z"></path>
	</symbol>
	<symbol id="times" viewBox="0 0 352 512">
		<path fill="currentColor" d="M242.72 256l100.07-100.07c12.28-12.28 12.28-32.19 0-44.48l-22.24-22.24c-12.28-12.28-32.19-12.28-44.48 0L176 189.28 75.93 89.21c-12.28-12.28-32.19-12.28-44.48 0L9.21 111.45c-12.28 12.28-12.28 32.19 0 44.48L109.28 256 9.21 356.07c-12.28 12.28-12.28 32.19 0 44.48l22.24 22.24c12.28 12.28 32.2 12.28 44.48 0L176 322.72l100.07 100.07c12.28 12.28 32.2 12.28 44.48 0l22.24-22.24c12.28-12.28 12.28-32.19 0-44.48L242.72 256z"></path>
	</symbol>
	<symbol id="trash" viewBox="0 0 448 512">
		<path fill="currentColor" d="M0 84V56c0-13.3 10.7-24 24-24h112l9.4-18.7c4-8.2 12.3-13.3 21.4-13.3h114.3c9.1 0 17.4 5.1 21.5 13.3L312 32h112c13.3 0 24 10.7 24 24v28c0 6.6-5.4 12-12 12H12C5.4 96 0 90.6 0 84zm415.2 56.7L394.8 467c-1.6 25.3-22.6 45-47.9 45H101.1c-25.3 0-46.3-19.7-47.9-45L32.8 140.7c-.4-6.9 5.1-12.7 12-12.7h358.5c6.8 0 12.3 5.8 11.9 12.7z"></path>
	</symbol>
	<symbol id="vertical-ellipsis" viewBox="0 0 192 512">
		<path fill="currentColor" d="M96 184c39.8 0 72 32.2 72 72s-32.2 72-72 72-72-32.2-72-72 32.2-72 72-72zM24 80c0 39.8 32.2 72 72 72s72-32.2 72-72S135.8 8 96 8 24 40.2 24 80zm0 352c0 39.8 32.2 72 72 72s72-32.2 72-72-32.2-72-72-72-72 32.2-72 72z"></path>
	</symbol>
	<symbol id="warning" viewBox="0 0 192 512">
		<path fill="currentColor" d="M176 432c0 44.112-35.888 80-80 80s-80-35.888-80-80 35.888-80 80-80 80 35.888 80 80zM25.26 25.199l13.6 272C39.499 309.972 50.041 320 62.83 320h66.34c12.789 0 23.331-10.028 23.97-22.801l13.6-272C167.425 11.49 156.496 0 142.77 0H49.23C35.504 0 24.575 11.49 25.26 25.199z"></path>
	</symbol>
</svg>